<svg width="9" height="9" viewBox="0 0 9 9" fill="none" xmlns="http://www.w3.org/2000/svg">
<path d="M3.47284 1.76691C3.79387 0.966571 3.95439 0.566399 4.21518 0.510937C4.28375 0.496354 4.35463 0.496354 4.4232 0.510937C4.68399 0.566399 4.84451 0.966571 5.16554 1.76691C5.34811 2.22205 5.4394 2.44962 5.6102 2.60441C5.65811 2.64782 5.71012 2.68649 5.76549 2.71986C5.96291 2.83885 6.20936 2.86092 6.70225 2.90507C7.53663 2.97979 7.95382 3.01715 8.08122 3.25502C8.10761 3.30429 8.12555 3.35763 8.13429 3.41283C8.17653 3.67934 7.86983 3.95837 7.25644 4.51643L7.0861 4.6714C6.79933 4.9323 6.65594 5.06276 6.57301 5.22556C6.52326 5.32322 6.4899 5.42839 6.47427 5.53687C6.44821 5.71771 6.4902 5.90696 6.57418 6.28545L6.60418 6.42068C6.75478 7.09945 6.83008 7.43883 6.73608 7.60565C6.65165 7.7555 6.49613 7.85143 6.32433 7.85963C6.13306 7.86877 5.86357 7.64917 5.32458 7.20997C4.96948 6.92061 4.79193 6.77593 4.59482 6.71942C4.4147 6.66777 4.22368 6.66777 4.04356 6.71942C3.84646 6.77593 3.6689 6.92061 3.3138 7.20997C2.77481 7.64917 2.50532 7.86877 2.31406 7.85963C2.14226 7.85143 1.98673 7.7555 1.9023 7.60565C1.8083 7.43883 1.8836 7.09945 2.0342 6.42069L2.06421 6.28545C2.14818 5.90696 2.19017 5.71771 2.16411 5.53687C2.14848 5.42839 2.11513 5.32322 2.06537 5.22556C1.98244 5.06276 1.83905 4.9323 1.55228 4.6714L1.38194 4.51643C0.768548 3.95837 0.461851 3.67934 0.504088 3.41283C0.512836 3.35763 0.530775 3.30429 0.557161 3.25502C0.68456 3.01715 1.10175 2.97979 1.93613 2.90507C2.42902 2.86092 2.67547 2.83885 2.87289 2.71986C2.92826 2.68649 2.98027 2.64782 3.02818 2.60441C3.19899 2.44962 3.29027 2.22205 3.47284 1.76691Z" fill="#FFA33A"/>
<path d="M1.93613 2.90507L1.89153 2.40706L1.93613 2.90507ZM2.87289 2.71986L2.61479 2.29163L2.87289 2.71986ZM3.47284 1.76691L3.00878 1.58077L3.47284 1.76691ZM3.02818 2.60441L2.69243 2.2339L3.02818 2.60441ZM1.38194 4.51643L1.04546 4.88627H1.04547L1.38194 4.51643ZM0.504088 3.41283L0.010251 3.33456L0.504088 3.41283ZM0.557161 3.25502L0.116397 3.01896L0.557161 3.25502ZM2.06421 6.28545L2.55234 6.39376V6.39376L2.06421 6.28545ZM2.16411 5.53687L1.66922 5.60818L2.16411 5.53687ZM1.55228 4.6714L1.88876 4.30156L1.88876 4.30156L1.55228 4.6714ZM2.06537 5.22556L1.61985 5.45252V5.45252L2.06537 5.22556ZM3.3138 7.20997L3.62964 7.59758L3.3138 7.20997ZM2.31406 7.85963L2.33791 7.3602L2.31406 7.85963ZM2.0342 6.42069L1.54607 6.31238V6.31238L2.0342 6.42069ZM1.9023 7.60565L2.33791 7.3602L1.9023 7.60565ZM5.32458 7.20997L5.64043 6.82236L5.32458 7.20997ZM4.59482 6.71942L4.45701 7.20005L4.59482 6.71942ZM4.04356 6.71942L4.18138 7.20005L4.04356 6.71942ZM6.60418 6.42068L7.09231 6.31238V6.31238L6.60418 6.42068ZM6.73608 7.60565L6.30047 7.3602L6.73608 7.60565ZM6.32433 7.85963L6.30047 7.3602L6.32433 7.85963ZM7.0861 4.6714L6.74962 4.30156V4.30156L7.0861 4.6714ZM6.57301 5.22556L6.12749 4.9986V4.9986L6.57301 5.22556ZM6.57418 6.28545L6.08605 6.39376V6.39376L6.57418 6.28545ZM6.47427 5.53687L6.96916 5.60818L6.47427 5.53687ZM6.70225 2.90507L6.74685 2.40706L6.70225 2.90507ZM8.08122 3.25502L8.52199 3.01896V3.01896L8.08122 3.25502ZM7.25644 4.51643L7.59292 4.88627V4.88627L7.25644 4.51643ZM8.13429 3.41283L8.62813 3.33456L8.13429 3.41283ZM5.16554 1.76691L5.6296 1.58077L5.16554 1.76691ZM5.6102 2.60441L5.94595 2.2339L5.6102 2.60441ZM5.76549 2.71986L6.02359 2.29163L5.76549 2.71986ZM4.4232 0.510937L4.52721 0.0218749L4.4232 0.510937ZM4.21518 0.510937L4.11117 0.0218749L4.21518 0.510937ZM7.25644 4.51643L6.91996 4.14659L6.74962 4.30156L7.0861 4.6714L7.42258 5.04124L7.59292 4.88627L7.25644 4.51643ZM6.57418 6.28545L6.08605 6.39376L6.11605 6.52899L6.60418 6.42068L7.09231 6.31238L7.06231 6.17715L6.57418 6.28545ZM2.0342 6.42069L2.52233 6.52899L2.55234 6.39376L2.06421 6.28545L1.57608 6.17715L1.54607 6.31238L2.0342 6.42069ZM1.55228 4.6714L1.88876 4.30156L1.71842 4.14659L1.38194 4.51643L1.04547 4.88627L1.2158 5.04124L1.55228 4.6714ZM1.93613 2.90507L1.98073 3.40307C2.21892 3.38174 2.42817 3.36341 2.60159 3.33303C2.78336 3.30119 2.96027 3.25099 3.13099 3.1481L2.87289 2.71986L2.61479 2.29163C2.58809 2.30772 2.54306 2.32806 2.42904 2.34803C2.30666 2.36947 2.14624 2.38425 1.89153 2.40706L1.93613 2.90507ZM3.47284 1.76691L3.00878 1.58077C2.91439 1.81607 2.85472 1.96373 2.79946 2.07354C2.74814 2.17553 2.71591 2.21263 2.69243 2.2339L3.02818 2.60441L3.36393 2.97491C3.51126 2.8414 3.61007 2.68733 3.69274 2.52304C3.77146 2.3666 3.84871 2.1729 3.9369 1.95306L3.47284 1.76691ZM2.87289 2.71986L3.13099 3.1481C3.21405 3.09803 3.29206 3.04003 3.36393 2.97491L3.02818 2.60441L2.69243 2.2339C2.66848 2.25561 2.64247 2.27494 2.61479 2.29163L2.87289 2.71986ZM1.38194 4.51643L1.71842 4.14659C1.40111 3.85791 1.1997 3.67338 1.07686 3.52999C0.944021 3.37494 1.01377 3.39109 0.997925 3.49109L0.504088 3.41283L0.010251 3.33456C-0.0478336 3.70108 0.154148 3.99 0.317449 4.18061C0.490744 4.38288 0.74938 4.6169 1.04546 4.88627L1.38194 4.51643ZM1.93613 2.90507L1.89153 2.40706C1.48852 2.44315 1.13821 2.47359 0.876132 2.5301C0.630487 2.58307 0.292202 2.69071 0.116397 3.01896L0.557161 3.25502L0.997925 3.49109C0.949519 3.58147 0.883529 3.55149 1.08693 3.50763C1.27389 3.46731 1.54937 3.4417 1.98073 3.40307L1.93613 2.90507ZM0.504088 3.41283L0.997925 3.49109H0.997925L0.557161 3.25502L0.116397 3.01896C0.0636254 3.11749 0.0277462 3.22417 0.010251 3.33456L0.504088 3.41283ZM2.06421 6.28545L2.55234 6.39376C2.62783 6.05351 2.70118 5.7583 2.659 5.46557L2.16411 5.53687L1.66922 5.60818C1.67916 5.67713 1.66854 5.76041 1.57608 6.17715L2.06421 6.28545ZM1.55228 4.6714L1.2158 5.04124C1.53155 5.32851 1.58823 5.39045 1.61985 5.45252L2.06537 5.22556L2.51089 4.9986C2.37664 4.73506 2.14655 4.5361 1.88876 4.30156L1.55228 4.6714ZM2.16411 5.53687L2.659 5.46557C2.63556 5.30285 2.58552 5.14508 2.51089 4.9986L2.06537 5.22556L1.61985 5.45252C1.64473 5.50135 1.66141 5.55394 1.66922 5.60818L2.16411 5.53687ZM3.3138 7.20997L2.99795 6.82236C2.72111 7.04795 2.53826 7.1964 2.401 7.2904C2.33397 7.33631 2.2955 7.35669 2.27691 7.36472C2.2587 7.37258 2.28436 7.35764 2.33791 7.3602L2.31406 7.85963L2.2902 8.35906C2.56868 8.37236 2.80832 8.22348 2.96606 8.11545C3.14611 7.99214 3.3675 7.81119 3.62964 7.59758L3.3138 7.20997ZM2.0342 6.42069L1.54607 6.31238C1.47283 6.64251 1.41048 6.92156 1.38108 7.1378C1.35533 7.32725 1.32983 7.60821 1.46669 7.8511L1.9023 7.60565L2.33791 7.3602C2.36423 7.40691 2.36239 7.43654 2.36125 7.41674C2.36008 7.39652 2.36103 7.353 2.37197 7.27249C2.39438 7.10765 2.44498 6.87763 2.52233 6.52899L2.0342 6.42069ZM2.31406 7.85963L2.33791 7.3602V7.3602L1.9023 7.60565L1.46669 7.8511C1.63556 8.15079 1.9466 8.34265 2.2902 8.35906L2.31406 7.85963ZM5.32458 7.20997L5.64043 6.82236C5.46848 6.68225 5.31904 6.56008 5.18722 6.46779C5.05032 6.37194 4.90516 6.28825 4.73264 6.23878L4.59482 6.71942L4.45701 7.20005C4.48158 7.2071 4.52375 7.22401 4.61369 7.28697C4.70869 7.35348 4.82558 7.44833 5.00874 7.59758L5.32458 7.20997ZM3.3138 7.20997L3.62964 7.59758C3.8128 7.44833 3.92969 7.35348 4.0247 7.28697C4.11463 7.22401 4.1568 7.2071 4.18138 7.20005L4.04356 6.71942L3.90574 6.23878C3.73322 6.28825 3.58806 6.37194 3.45116 6.46779C3.31934 6.56008 3.1699 6.68225 2.99795 6.82236L3.3138 7.20997ZM4.59482 6.71942L4.73264 6.23878C4.46245 6.16131 4.17593 6.16131 3.90574 6.23878L4.04356 6.71942L4.18138 7.20005C4.27144 7.17422 4.36694 7.17422 4.45701 7.20005L4.59482 6.71942ZM6.60418 6.42068L6.11605 6.52899C6.1934 6.87763 6.244 7.10765 6.26641 7.27249C6.27735 7.353 6.2783 7.39652 6.27714 7.41674C6.27599 7.43654 6.27415 7.40691 6.30047 7.3602L6.73608 7.60565L7.17169 7.8511C7.30855 7.60821 7.28305 7.32725 7.2573 7.1378C7.2279 6.92156 7.16556 6.64251 7.09231 6.31238L6.60418 6.42068ZM5.32458 7.20997L5.00874 7.59758C5.27088 7.81119 5.49227 7.99214 5.67233 8.11545C5.83006 8.22348 6.0697 8.37236 6.34818 8.35906L6.32433 7.85963L6.30047 7.3602C6.35402 7.35764 6.37968 7.37259 6.36147 7.36472C6.34288 7.35669 6.30441 7.33631 6.23738 7.2904C6.10013 7.1964 5.91727 7.04795 5.64043 6.82236L5.32458 7.20997ZM6.73608 7.60565L6.30047 7.3602V7.3602L6.32433 7.85963L6.34818 8.35906C6.69178 8.34265 7.00282 8.15079 7.17169 7.8511L6.73608 7.60565ZM7.0861 4.6714L6.74962 4.30156C6.49183 4.5361 6.26174 4.73506 6.12749 4.9986L6.57301 5.22556L7.01853 5.45252C7.05015 5.39045 7.10683 5.32851 7.42258 5.04124L7.0861 4.6714ZM6.57418 6.28545L7.06231 6.17715C6.96984 5.76041 6.95922 5.67713 6.96916 5.60818L6.47427 5.53687L5.97938 5.46557C5.9372 5.7583 6.01056 6.05351 6.08605 6.39376L6.57418 6.28545ZM6.57301 5.22556L6.12749 4.9986C6.05286 5.14508 6.00282 5.30284 5.97938 5.46557L6.47427 5.53687L6.96916 5.60818C6.97697 5.55394 6.99365 5.50135 7.01853 5.45252L6.57301 5.22556ZM6.70225 2.90507L6.65765 3.40307C7.08902 3.4417 7.36449 3.46731 7.55146 3.50763C7.75485 3.55149 7.68886 3.58147 7.64046 3.49109L8.08122 3.25502L8.52199 3.01896C8.34618 2.69071 8.00789 2.58307 7.76225 2.5301C7.50017 2.47359 7.14986 2.44315 6.74685 2.40706L6.70225 2.90507ZM7.25644 4.51643L7.59292 4.88627C7.889 4.6169 8.14764 4.38288 8.32093 4.18061C8.48423 3.99 8.68622 3.70108 8.62813 3.33456L8.13429 3.41283L7.64046 3.49109C7.62461 3.39109 7.69436 3.37494 7.56152 3.52999C7.43868 3.67338 7.23727 3.85791 6.91996 4.14659L7.25644 4.51643ZM8.08122 3.25502L7.64046 3.49109L7.64046 3.49109L8.13429 3.41283L8.62813 3.33456C8.61063 3.22417 8.57476 3.11749 8.52199 3.01896L8.08122 3.25502ZM5.16554 1.76691L4.70149 1.95306C4.78967 2.1729 4.86692 2.3666 4.94564 2.52304C5.02831 2.68733 5.12712 2.8414 5.27445 2.97491L5.6102 2.60441L5.94595 2.2339C5.92247 2.21263 5.89024 2.17553 5.83892 2.07354C5.78366 1.96373 5.72399 1.81607 5.6296 1.58077L5.16554 1.76691ZM6.70225 2.90507L6.74685 2.40706C6.49214 2.38425 6.33172 2.36947 6.20934 2.34803C6.09532 2.32806 6.05029 2.30772 6.02359 2.29163L5.76549 2.71986L5.50739 3.1481C5.67811 3.25099 5.85502 3.30119 6.03679 3.33303C6.21021 3.36341 6.41946 3.38174 6.65765 3.40307L6.70225 2.90507ZM5.6102 2.60441L5.27445 2.97491C5.34632 3.04003 5.42433 3.09803 5.50739 3.1481L5.76549 2.71986L6.02359 2.29163C5.99591 2.27494 5.9699 2.25561 5.94595 2.2339L5.6102 2.60441ZM5.16554 1.76691L5.6296 1.58077C5.47417 1.19327 5.34122 0.85954 5.21078 0.620269C5.09108 0.400706 4.8921 0.0994768 4.52721 0.0218749L4.4232 0.510937L4.31919 1C4.21509 0.97786 4.22676 0.904448 4.33278 1.09892C4.42805 1.27369 4.53588 1.54022 4.70149 1.95306L5.16554 1.76691ZM3.47284 1.76691L3.9369 1.95306C4.1025 1.54022 4.21033 1.27369 4.3056 1.09892C4.41162 0.904447 4.4233 0.97786 4.31919 1L4.21518 0.510937L4.11117 0.0218749C3.74628 0.0994768 3.5473 0.400706 3.4276 0.62027C3.29716 0.85954 3.16422 1.19327 3.00878 1.58077L3.47284 1.76691ZM4.4232 0.510937L4.52721 0.0218749C4.39006 -0.00729162 4.24832 -0.00729162 4.11117 0.0218749L4.21518 0.510937L4.31919 1V1L4.4232 0.510937Z" fill="#FFA33A"/>
</svg>
