<svg width="10" height="13" viewBox="0 0 10 13" fill="none" xmlns="http://www.w3.org/2000/svg">
<path d="M4.8125 6.5625C5.779 6.5625 6.5625 5.779 6.5625 4.8125C6.5625 3.846 5.779 3.0625 4.8125 3.0625C3.846 3.0625 3.0625 3.846 3.0625 4.8125C3.0625 5.779 3.846 6.5625 4.8125 6.5625Z" stroke="#021F3E" stroke-width="0.875" stroke-linecap="round" stroke-linejoin="round"/>
<path d="M9.1875 4.8125C9.1875 8.75 4.8125 11.8125 4.8125 11.8125C4.8125 11.8125 0.4375 8.75 0.4375 4.8125C0.4375 3.65218 0.898436 2.53938 1.71891 1.71891C2.53938 0.898436 3.65218 0.4375 4.8125 0.4375C5.97282 0.4375 7.08562 0.898436 7.90609 1.71891C8.72656 2.53938 9.1875 3.65218 9.1875 4.8125Z" stroke="#021F3E" stroke-width="0.875" stroke-linecap="round" stroke-linejoin="round"/>
</svg>
